<svg xmlns="http://www.w3.org/2000/svg" width="66" height="14" fill="none" viewBox="0 0 66 14"><path fill="#ffffff" d="m11.918.916-.783-.375a.919.919 0 0 0-1.23.444l-.22.414L6.235 8.77 2.788 1.4l-.22-.414a.917.917 0 0 0-1.23-.444L.556.916c-.466.219-.69.804-.474 1.273l.195.383 4.689 10.024a1.383 1.383 0 0 0 1.248.797h.042a1.385 1.385 0 0 0 1.248-.797l4.689-10.024.195-.383c.217-.469-.007-1.054-.47-1.273ZM19.311 12.926l.784.375a.918.918 0 0 0 1.23-.444l.22-.414 3.451-7.371 3.448 7.371.22.414a.918.918 0 0 0 1.23.444l.785-.375c.462-.221.687-.804.469-1.271l-.195-.383-4.689-10.024a1.384 1.384 0 0 0-1.248-.797h-.041a1.386 1.386 0 0 0-1.25.797l-4.688 10.024-.195.383c-.219.467.006 1.05.47 1.27ZM47.275 3.212a.918.918 0 0 0 .966-.882l.03-.868c.02-.512-.393-.982-.908-1.006L46.887.45h-5.413c-.03 0-.059 0-.092.004-1.433.095-3.565 1.126-3.565 3.572 0 2.487 2.104 3.599 3.236 3.846l2.823.677c.041.009.082.017.124.023.15.022.896.176.896 1.014 0 .504-.253.801-.754.885h-5.318l-.362.005a.918.918 0 0 0-.966.883l-.03.868c-.02.512.393.982.908 1.006l.45.005h5.413c.043 0 .086 0 .128-.005 1.327-.123 3.301-1.196 3.301-3.647 0-2.539-2.051-3.547-3.195-3.742l-2.787-.668-.039-.008c-.042-.01-1.058-.235-1.058-1.142 0-.606.578-.769.953-.81h5.347l.388-.004ZM66 1.365a.916.916 0 0 0-.938-.914H55.5a.919.919 0 0 0-.938.914v.878c0 .513.427.968.942.976H58.897v9.086a.914.914 0 0 0 .56.864.919.919 0 0 0 .355.073h.879c.512 0 .968-.426.976-.94V3.217H65.06c.515-.007.943-.463.942-.975l-.003-.878Z"></path></svg>